<mxfile host="65bd71144e">
    <diagram id="C5RBs43oDa-KdzZeNtuy" name="Page-1">
        <mxGraphModel dx="990" dy="471" grid="0" gridSize="10" guides="1" tooltips="1" connect="1" arrows="1" fold="1" page="1" pageScale="1" pageWidth="827" pageHeight="1169" math="0" shadow="0">
            <root>
                <mxCell id="WIyWlLk6GJQsqaUBKTNV-0"/>
                <mxCell id="WIyWlLk6GJQsqaUBKTNV-1" parent="WIyWlLk6GJQsqaUBKTNV-0"/>
                <mxCell id="9OZRC_NavAZGSDA5mFGG-5" value="프로그램 시작" style="rounded=0;whiteSpace=wrap;html=1;fontFamily=프리텐다드;fontSource=https%3A%2F%2Fcdn.jsdelivr.net%2Fgh%2FProject-Noonnu%2Fnoonfonts_2107%401.1%2FPretendard-Regular.woff;" parent="WIyWlLk6GJQsqaUBKTNV-1" vertex="1">
                    <mxGeometry x="414" y="42" width="114" height="42" as="geometry"/>
                </mxCell>
                <mxCell id="9OZRC_NavAZGSDA5mFGG-6" value="LIDAR를 통해 지정된 범위 내 사람 유무 파악" style="rounded=0;whiteSpace=wrap;html=1;fontFamily=프리텐다드;fontSource=https%3A%2F%2Fcdn.jsdelivr.net%2Fgh%2FProject-Noonnu%2Fnoonfonts_2107%401.1%2FPretendard-Regular.woff;" parent="WIyWlLk6GJQsqaUBKTNV-1" vertex="1">
                    <mxGeometry x="415.5" y="125" width="111" height="50" as="geometry"/>
                </mxCell>
                <mxCell id="9OZRC_NavAZGSDA5mFGG-7" value="사람이 탐지되었나?" style="rhombus;whiteSpace=wrap;html=1;fontFamily=프리텐다드;fontSource=https%3A%2F%2Fcdn.jsdelivr.net%2Fgh%2FProject-Noonnu%2Fnoonfonts_2107%401.1%2FPretendard-Regular.woff;" parent="WIyWlLk6GJQsqaUBKTNV-1" vertex="1">
                    <mxGeometry x="412.5" y="223" width="117" height="80" as="geometry"/>
                </mxCell>
                <mxCell id="9OZRC_NavAZGSDA5mFGG-9" value="탐지된 각도와 거리에 충족하는 배열인자에 1 push" style="rounded=0;whiteSpace=wrap;html=1;direction=south;fontFamily=프리텐다드;fontSource=https%3A%2F%2Fcdn.jsdelivr.net%2Fgh%2FProject-Noonnu%2Fnoonfonts_2107%401.1%2FPretendard-Regular.woff;" parent="WIyWlLk6GJQsqaUBKTNV-1" vertex="1">
                    <mxGeometry x="320" y="351" width="110.5" height="66" as="geometry"/>
                </mxCell>
                <mxCell id="9OZRC_NavAZGSDA5mFGG-11" value="" style="endArrow=classic;html=1;rounded=0;entryX=0;entryY=0;entryDx=0;entryDy=0;fontFamily=프리텐다드;fontSource=https%3A%2F%2Fcdn.jsdelivr.net%2Fgh%2FProject-Noonnu%2Fnoonfonts_2107%401.1%2FPretendard-Regular.woff;" parent="WIyWlLk6GJQsqaUBKTNV-1" target="9OZRC_NavAZGSDA5mFGG-9" edge="1">
                    <mxGeometry width="50" height="50" relative="1" as="geometry">
                        <mxPoint x="468.5" y="303" as="sourcePoint"/>
                        <mxPoint x="430.5" y="338" as="targetPoint"/>
                        <Array as="points">
                            <mxPoint x="463.5" y="308"/>
                        </Array>
                    </mxGeometry>
                </mxCell>
                <mxCell id="9OZRC_NavAZGSDA5mFGG-12" value="" style="endArrow=classic;html=1;rounded=0;fontFamily=프리텐다드;fontSource=https%3A%2F%2Fcdn.jsdelivr.net%2Fgh%2FProject-Noonnu%2Fnoonfonts_2107%401.1%2FPretendard-Regular.woff;" parent="WIyWlLk6GJQsqaUBKTNV-1" edge="1">
                    <mxGeometry width="50" height="50" relative="1" as="geometry">
                        <mxPoint x="471" y="303" as="sourcePoint"/>
                        <mxPoint x="517" y="349" as="targetPoint"/>
                    </mxGeometry>
                </mxCell>
                <mxCell id="9OZRC_NavAZGSDA5mFGG-13" value="탐지된 각도와 거리에 충족하는 배열인자에 0 push" style="rounded=0;whiteSpace=wrap;html=1;direction=south;fontFamily=프리텐다드;fontSource=https%3A%2F%2Fcdn.jsdelivr.net%2Fgh%2FProject-Noonnu%2Fnoonfonts_2107%401.1%2FPretendard-Regular.woff;" parent="WIyWlLk6GJQsqaUBKTNV-1" vertex="1">
                    <mxGeometry x="516" y="351" width="110.5" height="66" as="geometry"/>
                </mxCell>
                <mxCell id="9OZRC_NavAZGSDA5mFGG-14" value="yes" style="text;html=1;resizable=0;autosize=1;align=center;verticalAlign=middle;points=[];fillColor=none;strokeColor=none;rounded=0;fontFamily=프리텐다드;fontSource=https%3A%2F%2Fcdn.jsdelivr.net%2Fgh%2FProject-Noonnu%2Fnoonfonts_2107%401.1%2FPretendard-Regular.woff;" parent="WIyWlLk6GJQsqaUBKTNV-1" vertex="1">
                    <mxGeometry x="414" y="312" width="29" height="18" as="geometry"/>
                </mxCell>
                <mxCell id="9OZRC_NavAZGSDA5mFGG-15" value="no" style="text;html=1;resizable=0;autosize=1;align=center;verticalAlign=middle;points=[];fillColor=none;strokeColor=none;rounded=0;fontFamily=프리텐다드;fontSource=https%3A%2F%2Fcdn.jsdelivr.net%2Fgh%2FProject-Noonnu%2Fnoonfonts_2107%401.1%2FPretendard-Regular.woff;" parent="WIyWlLk6GJQsqaUBKTNV-1" vertex="1">
                    <mxGeometry x="513" y="312" width="23" height="18" as="geometry"/>
                </mxCell>
                <mxCell id="9OZRC_NavAZGSDA5mFGG-16" value="" style="strokeWidth=1;html=1;shape=mxgraph.flowchart.annotation_2;align=left;labelPosition=right;pointerEvents=1;rotation=-90;fontFamily=프리텐다드;fontSource=https%3A%2F%2Fcdn.jsdelivr.net%2Fgh%2FProject-Noonnu%2Fnoonfonts_2107%401.1%2FPretendard-Regular.woff;" parent="WIyWlLk6GJQsqaUBKTNV-1" vertex="1">
                    <mxGeometry x="445" y="340" width="50" height="206" as="geometry"/>
                </mxCell>
                <mxCell id="9OZRC_NavAZGSDA5mFGG-18" style="edgeStyle=orthogonalEdgeStyle;rounded=0;orthogonalLoop=1;jettySize=auto;html=1;exitX=0;exitY=0.5;exitDx=0;exitDy=0;endArrow=none;endFill=0;fontFamily=프리텐다드;fontSource=https%3A%2F%2Fcdn.jsdelivr.net%2Fgh%2FProject-Noonnu%2Fnoonfonts_2107%401.1%2FPretendard-Regular.woff;" parent="WIyWlLk6GJQsqaUBKTNV-1" source="9OZRC_NavAZGSDA5mFGG-17" edge="1">
                    <mxGeometry relative="1" as="geometry">
                        <mxPoint x="229" y="155" as="targetPoint"/>
                    </mxGeometry>
                </mxCell>
                <mxCell id="9OZRC_NavAZGSDA5mFGG-17" value="탐지한 각도가 0, 90도인가?" style="rhombus;whiteSpace=wrap;html=1;fontFamily=프리텐다드;fontSource=https%3A%2F%2Fcdn.jsdelivr.net%2Fgh%2FProject-Noonnu%2Fnoonfonts_2107%401.1%2FPretendard-Regular.woff;" parent="WIyWlLk6GJQsqaUBKTNV-1" vertex="1">
                    <mxGeometry x="386" y="470" width="170" height="110" as="geometry"/>
                </mxCell>
                <mxCell id="9OZRC_NavAZGSDA5mFGG-19" value="" style="endArrow=classic;html=1;rounded=0;entryX=-0.055;entryY=0.584;entryDx=0;entryDy=0;entryPerimeter=0;fontFamily=프리텐다드;fontSource=https%3A%2F%2Fcdn.jsdelivr.net%2Fgh%2FProject-Noonnu%2Fnoonfonts_2107%401.1%2FPretendard-Regular.woff;" parent="WIyWlLk6GJQsqaUBKTNV-1" target="9OZRC_NavAZGSDA5mFGG-6" edge="1">
                    <mxGeometry width="50" height="50" relative="1" as="geometry">
                        <mxPoint x="228" y="155" as="sourcePoint"/>
                        <mxPoint x="303" y="152" as="targetPoint"/>
                    </mxGeometry>
                </mxCell>
                <mxCell id="9OZRC_NavAZGSDA5mFGG-20" value="no" style="text;html=1;resizable=0;autosize=1;align=center;verticalAlign=middle;points=[];fillColor=none;strokeColor=none;rounded=0;fontFamily=프리텐다드;fontSource=https%3A%2F%2Fcdn.jsdelivr.net%2Fgh%2FProject-Noonnu%2Fnoonfonts_2107%401.1%2FPretendard-Regular.woff;" parent="WIyWlLk6GJQsqaUBKTNV-1" vertex="1">
                    <mxGeometry x="320" y="500" width="23" height="18" as="geometry"/>
                </mxCell>
                <mxCell id="9OZRC_NavAZGSDA5mFGG-21" value="yes" style="text;html=1;resizable=0;autosize=1;align=center;verticalAlign=middle;points=[];fillColor=none;strokeColor=none;rounded=0;fontFamily=프리텐다드;fontSource=https%3A%2F%2Fcdn.jsdelivr.net%2Fgh%2FProject-Noonnu%2Fnoonfonts_2107%401.1%2FPretendard-Regular.woff;" parent="WIyWlLk6GJQsqaUBKTNV-1" vertex="1">
                    <mxGeometry x="493.5" y="606" width="29" height="18" as="geometry"/>
                </mxCell>
                <mxCell id="9OZRC_NavAZGSDA5mFGG-22" value="" style="endArrow=classic;html=1;rounded=0;entryX=0.5;entryY=0;entryDx=0;entryDy=0;fontFamily=프리텐다드;fontSource=https%3A%2F%2Fcdn.jsdelivr.net%2Fgh%2FProject-Noonnu%2Fnoonfonts_2107%401.1%2FPretendard-Regular.woff;" parent="WIyWlLk6GJQsqaUBKTNV-1" target="9OZRC_NavAZGSDA5mFGG-26" edge="1">
                    <mxGeometry width="50" height="50" relative="1" as="geometry">
                        <mxPoint x="471" y="580" as="sourcePoint"/>
                        <mxPoint x="469" y="656" as="targetPoint"/>
                    </mxGeometry>
                </mxCell>
                <mxCell id="9OZRC_NavAZGSDA5mFGG-23" value="" style="endArrow=classic;html=1;rounded=0;entryX=0.5;entryY=0;entryDx=0;entryDy=0;fontFamily=프리텐다드;fontSource=https%3A%2F%2Fcdn.jsdelivr.net%2Fgh%2FProject-Noonnu%2Fnoonfonts_2107%401.1%2FPretendard-Regular.woff;" parent="WIyWlLk6GJQsqaUBKTNV-1" target="9OZRC_NavAZGSDA5mFGG-6" edge="1">
                    <mxGeometry width="50" height="50" relative="1" as="geometry">
                        <mxPoint x="470.5" y="84" as="sourcePoint"/>
                        <mxPoint x="470.5" y="137" as="targetPoint"/>
                    </mxGeometry>
                </mxCell>
                <mxCell id="9OZRC_NavAZGSDA5mFGG-25" value="" style="endArrow=classic;html=1;rounded=0;fontFamily=프리텐다드;fontSource=https%3A%2F%2Fcdn.jsdelivr.net%2Fgh%2FProject-Noonnu%2Fnoonfonts_2107%401.1%2FPretendard-Regular.woff;" parent="WIyWlLk6GJQsqaUBKTNV-1" edge="1">
                    <mxGeometry width="50" height="50" relative="1" as="geometry">
                        <mxPoint x="470.5" y="175" as="sourcePoint"/>
                        <mxPoint x="470.5" y="225" as="targetPoint"/>
                    </mxGeometry>
                </mxCell>
                <mxCell id="9OZRC_NavAZGSDA5mFGG-29" style="edgeStyle=orthogonalEdgeStyle;rounded=0;orthogonalLoop=1;jettySize=auto;html=1;exitX=0.5;exitY=1;exitDx=0;exitDy=0;fontSize=9;endArrow=none;endFill=0;fontFamily=프리텐다드;fontSource=https%3A%2F%2Fcdn.jsdelivr.net%2Fgh%2FProject-Noonnu%2Fnoonfonts_2107%401.1%2FPretendard-Regular.woff;" parent="WIyWlLk6GJQsqaUBKTNV-1" source="9OZRC_NavAZGSDA5mFGG-26" edge="1">
                    <mxGeometry relative="1" as="geometry">
                        <mxPoint x="470" y="838.2000122070312" as="targetPoint"/>
                    </mxGeometry>
                </mxCell>
                <mxCell id="9OZRC_NavAZGSDA5mFGG-26" value="&lt;font style=&quot;font-size: 12px;&quot;&gt;기존 배열과 새로 탐지한 배열에 차이가 있는가?&lt;/font&gt;" style="rhombus;whiteSpace=wrap;html=1;fontFamily=프리텐다드;fontSource=https%3A%2F%2Fcdn.jsdelivr.net%2Fgh%2FProject-Noonnu%2Fnoonfonts_2107%401.1%2FPretendard-Regular.woff;" parent="WIyWlLk6GJQsqaUBKTNV-1" vertex="1">
                    <mxGeometry x="337" y="631" width="266" height="172" as="geometry"/>
                </mxCell>
                <mxCell id="9OZRC_NavAZGSDA5mFGG-30" value="" style="endArrow=none;html=1;rounded=0;fontSize=9;fontFamily=프리텐다드;fontSource=https%3A%2F%2Fcdn.jsdelivr.net%2Fgh%2FProject-Noonnu%2Fnoonfonts_2107%401.1%2FPretendard-Regular.woff;" parent="WIyWlLk6GJQsqaUBKTNV-1" edge="1">
                    <mxGeometry width="50" height="50" relative="1" as="geometry">
                        <mxPoint x="339" y="838" as="sourcePoint"/>
                        <mxPoint x="604" y="840" as="targetPoint"/>
                    </mxGeometry>
                </mxCell>
                <mxCell id="9OZRC_NavAZGSDA5mFGG-31" value="" style="endArrow=classic;html=1;rounded=0;fontSize=9;fontFamily=프리텐다드;fontSource=https%3A%2F%2Fcdn.jsdelivr.net%2Fgh%2FProject-Noonnu%2Fnoonfonts_2107%401.1%2FPretendard-Regular.woff;" parent="WIyWlLk6GJQsqaUBKTNV-1" edge="1">
                    <mxGeometry width="50" height="50" relative="1" as="geometry">
                        <mxPoint x="340" y="838" as="sourcePoint"/>
                        <mxPoint x="340" y="887" as="targetPoint"/>
                    </mxGeometry>
                </mxCell>
                <mxCell id="9OZRC_NavAZGSDA5mFGG-33" value="" style="endArrow=classic;html=1;rounded=0;fontSize=9;fontFamily=프리텐다드;fontSource=https%3A%2F%2Fcdn.jsdelivr.net%2Fgh%2FProject-Noonnu%2Fnoonfonts_2107%401.1%2FPretendard-Regular.woff;" parent="WIyWlLk6GJQsqaUBKTNV-1" edge="1">
                    <mxGeometry width="50" height="50" relative="1" as="geometry">
                        <mxPoint x="603" y="839" as="sourcePoint"/>
                        <mxPoint x="603" y="888" as="targetPoint"/>
                    </mxGeometry>
                </mxCell>
                <mxCell id="9OZRC_NavAZGSDA5mFGG-34" value="yes" style="text;html=1;resizable=0;autosize=1;align=center;verticalAlign=middle;points=[];fillColor=none;strokeColor=none;rounded=0;fontFamily=프리텐다드;fontSource=https%3A%2F%2Fcdn.jsdelivr.net%2Fgh%2FProject-Noonnu%2Fnoonfonts_2107%401.1%2FPretendard-Regular.woff;" parent="WIyWlLk6GJQsqaUBKTNV-1" vertex="1">
                    <mxGeometry x="550" y="814" width="29" height="18" as="geometry"/>
                </mxCell>
                <mxCell id="9OZRC_NavAZGSDA5mFGG-35" value="no" style="text;html=1;resizable=0;autosize=1;align=center;verticalAlign=middle;points=[];fillColor=none;strokeColor=none;rounded=0;fontFamily=프리텐다드;fontSource=https%3A%2F%2Fcdn.jsdelivr.net%2Fgh%2FProject-Noonnu%2Fnoonfonts_2107%401.1%2FPretendard-Regular.woff;" parent="WIyWlLk6GJQsqaUBKTNV-1" vertex="1">
                    <mxGeometry x="361" y="814" width="23" height="18" as="geometry"/>
                </mxCell>
                <mxCell id="9OZRC_NavAZGSDA5mFGG-36" value="중계기 nucleo보드에 동적인 사람이 탐지되지 않았음을 알림" style="rounded=0;whiteSpace=wrap;html=1;fontFamily=프리텐다드;fontSource=https%3A%2F%2Fcdn.jsdelivr.net%2Fgh%2FProject-Noonnu%2Fnoonfonts_2107%401.1%2FPretendard-Regular.woff;" parent="WIyWlLk6GJQsqaUBKTNV-1" vertex="1">
                    <mxGeometry x="279" y="889" width="120" height="60" as="geometry"/>
                </mxCell>
                <mxCell id="9OZRC_NavAZGSDA5mFGG-37" value="중계기 nucleo보드에 동적인 사람이 탐지되었음을 알림" style="rounded=0;whiteSpace=wrap;html=1;fontFamily=프리텐다드;fontSource=https%3A%2F%2Fcdn.jsdelivr.net%2Fgh%2FProject-Noonnu%2Fnoonfonts_2107%401.1%2FPretendard-Regular.woff;" parent="WIyWlLk6GJQsqaUBKTNV-1" vertex="1">
                    <mxGeometry x="549" y="889" width="120" height="60" as="geometry"/>
                </mxCell>
                <mxCell id="9OZRC_NavAZGSDA5mFGG-38" value="인도(side_walk) 동적 객체 탐지 알고리즘" style="swimlane;strokeWidth=1;fontSize=12;startSize=23;fontFamily=프리텐다드;fontSource=https%3A%2F%2Fcdn.jsdelivr.net%2Fgh%2FProject-Noonnu%2Fnoonfonts_2107%401.1%2FPretendard-Regular.woff;" parent="WIyWlLk6GJQsqaUBKTNV-1" vertex="1">
                    <mxGeometry x="151" y="6" width="608" height="959" as="geometry"/>
                </mxCell>
            </root>
        </mxGraphModel>
    </diagram>
</mxfile>